<?xml version="1.0" encoding="UTF-8"?>
<!DOCTYPE svg PUBLIC "-//W3C//DTD SVG 1.1//EN" "http://www.w3.org/Graphics/SVG/1.1/DTD/svg11.dtd">
<!-- Creator: CorelDRAW 2020 (64-Bit) -->
<svg xmlns="http://www.w3.org/2000/svg" xml:space="preserve" width="1024px" height="768px" version="1.1" style="shape-rendering:geometricPrecision; text-rendering:geometricPrecision; image-rendering:optimizeQuality; fill-rule:evenodd; clip-rule:evenodd"
viewBox="0 0 1024 768"
 xmlns:xlink="http://www.w3.org/1999/xlink"
 xmlns:xodm="http://www.corel.com/coreldraw/odm/2003">
 <defs>
  <style type="text/css">
   <![CDATA[
    .str0 {stroke:black;stroke-width:0.667;stroke-miterlimit:2.61313}
    .str3 {stroke:#04BF13;stroke-width:0.667;stroke-miterlimit:2.61313}
    .str1 {stroke:#0E5211;stroke-width:0.667;stroke-miterlimit:2.61313}
    .str2 {stroke:#0F570F;stroke-width:0.667;stroke-miterlimit:2.61313}
    .fil1 {fill:none}
    .fil0 {fill:none;fill-rule:nonzero}
    .fil2 {fill:black}
    .fil3 {fill:lime}
    .fil5 {fill:url(#id24)}
    .fil6 {fill:url(#id25)}
    .fil4 {fill:url(#id26)}
    .fil8 {fill:url(#id27)}
    .fil9 {fill:url(#id28)}
    .fil7 {fill:url(#id29);fill-rule:nonzero}
   ]]>
  </style>
    <clipPath id="id0">
     <rect x="437.227" y="255.798" width="113.387" height="381.657"/>
    </clipPath>
   <clipPath id="id1" style="clip-rule:nonzero">
    <path d="M211.199 584.119l1.488 4.448c-3.656,1.216 -6.976,1.312 -9.96,0.288 -2.984,-1.024 -5.448,-3.04 -7.376,-6.056 -2,-3.112 -2.992,-6.048 -2.976,-8.816 0.008,-2.768 0.896,-5.432 2.648,-7.992 1.752,-2.56 4.008,-4.728 6.76,-6.504 3.016,-1.928 6.008,-3.04 8.984,-3.328 2.984,-0.288 5.736,0.256 8.256,1.632 2.528,1.376 4.608,3.336 6.248,5.888 1.856,2.888 2.68,5.792 2.472,8.712 -0.208,2.912 -1.392,5.616 -3.568,8.104l-3.304 -3.2c1.672,-2.016 2.584,-3.968 2.72,-5.864 0.144,-1.888 -0.408,-3.8 -1.648,-5.728 -1.424,-2.224 -3.144,-3.736 -5.168,-4.544 -2.024,-0.808 -4.128,-0.944 -6.304,-0.392 -2.184,0.544 -4.224,1.432 -6.136,2.656 -2.456,1.576 -4.368,3.312 -5.744,5.2 -1.376,1.896 -2.024,3.888 -1.968,5.984 0.064,2.088 0.664,4.016 1.792,5.776 1.376,2.144 3.16,3.56 5.352,4.256 2.184,0.688 4.664,0.52 7.432,-0.52z"/>
   </clipPath>
   <clipPath id="id2" style="clip-rule:nonzero">
    <path d="M206.546 599.313l26.736 -21.568 9.561 11.848c1.92,2.384 3.144,4.392 3.664,6.016 0.52,1.632 0.472,3.304 -0.144,5.024 -0.616,1.728 -1.665,3.184 -3.136,4.368 -1.896,1.528 -3.993,2.208 -6.28,2.024 -2.288,-0.176 -4.648,-1.408 -7.073,-3.688 0.313,1.304 0.441,2.368 0.393,3.208 -0.113,1.8 -0.512,3.736 -1.184,5.808l-3.529 10.52 -3.591 -4.448 2.712 -8.024c0.768,-2.328 1.311,-4.176 1.624,-5.528 0.311,-1.352 0.424,-2.432 0.336,-3.24 -0.088,-0.8 -0.28,-1.528 -0.592,-2.184 -0.24,-0.472 -0.729,-1.16 -1.464,-2.072l-3.305 -4.104 -11.871 9.576 -2.857 -3.536zm17.793 -8.512l6.136 7.6c1.304,1.624 2.488,2.752 3.56,3.392 1.063,0.64 2.16,0.904 3.279,0.784 1.121,-0.12 2.112,-0.528 2.968,-1.224 1.265,-1.024 1.937,-2.32 2.009,-3.896 0.08,-1.576 -0.688,-3.352 -2.289,-5.328l-6.824 -8.464 -8.839 7.136z"/>
   </clipPath>
   <clipPath id="id3" style="clip-rule:nonzero">
    <path d="M228.411 626.253l25.048 -23.52 17.008 18.112 -2.959 2.776 -13.897 -14.8 -7.672 7.208 13.017 13.856 -2.937 2.76 -13.016 -13.856 -8.527 8 14.439 15.384 -2.952 2.768 -17.552 -18.688z"/>
   </clipPath>
   <clipPath id="id4" style="clip-rule:nonzero">
    <path d="M247.561 646.942l32.368 -17.496 3.72 3.192 -11.68 35.224 -3.928 -3.368 3.728 -10.504 -10.904 -9.352 -9.64 5.448 -3.664 -3.144zm16.704 -4.256l8.84 7.576 3.472 -9.552c1.048,-2.904 1.976,-5.24 2.784,-7 -1.768,1.392 -3.656,2.648 -5.672,3.784l-9.424 5.192z"/>
   </clipPath>
   <clipPath id="id5" style="clip-rule:nonzero">
    <path d="M279.03 673.173l18.072 -24.336 -9.088 -6.752 2.416 -3.256 21.872 16.24 -2.416 3.256 -9.128 -6.776 -18.072 24.336 -3.656 -2.712z"/>
   </clipPath>
   <clipPath id="id6" style="clip-rule:nonzero">
    <path d="M296.453 685.503l19.265 -28.456 3.768 2.552 -19.264 28.448 -3.769 -2.544z"/>
   </clipPath>
   <clipPath id="id7" style="clip-rule:nonzero">
    <path d="M315.409 697.398l5.712 -36.4 4.264 2.472 -4.792 26.064c-0.384,2.088 -0.809,4.016 -1.265,5.776 1.401,-1.36 2.872,-2.672 4.425,-3.944l20.544 -16.936 4.015 2.328 -28.864 22.976 -4.039 -2.336z"/>
   </clipPath>
   <clipPath id="id8" style="clip-rule:nonzero">
    <path d="M334.936 708.141l15.16 -30.816 22.288 10.959 -1.792 3.64 -18.208 -8.96 -4.64 9.44 17.048 8.393 -1.776 3.615 -17.056 -8.392 -5.16 10.497 18.92 9.304 -1.784 3.64 -23 -11.32z"/>
   </clipPath>
   <clipPath id="id9" style="clip-rule:nonzero">
    <path d="M381.983 728.424l1.513 -35.528 4.455 1.392 -1.704 23.064c-0.168,2.416 -0.399,4.8 -0.704,7.144 1.928,-3.248 3.049,-5.112 3.368,-5.608l13.144 -20.208 5.24 1.624 -0.48 18.072c-0.096,4.488 -0.455,8.624 -1.064,12.416 1.064,-1.944 2.352,-4.152 3.857,-6.632l11.72 -19.48 4.36 1.36 -19.217 30.008 -4.184 -1.304 0.872 -27.152c0.065,-2.272 0.121,-3.664 0.169,-4.176 -0.816,1.4 -1.536,2.584 -2.16,3.552l-14.753 22.832 -4.432 -1.376z"/>
   </clipPath>
   <clipPath id="id10" style="clip-rule:nonzero">
    <path d="M419.853 739.332l6.08 -33.808 24.448 4.4 -0.712 3.984 -19.976 -3.592 -1.864 10.36 18.704 3.36 -0.712 3.968 -18.704 -3.368 -2.072 11.512 20.76 3.736 -0.72 3.984 -25.232 -4.536z"/>
   </clipPath>
   <clipPath id="id11" style="clip-rule:nonzero">
    <path d="M451.132 744.706l3.176 -34.192 12.824 1.192c2.616,0.24 4.672,0.784 6.192,1.624 1.512,0.832 2.648,2.016 3.408,3.536 0.76,1.52 1.072,3.064 0.92,4.64 -0.136,1.456 -0.656,2.8 -1.568,4.016 -0.912,1.216 -2.208,2.144 -3.88,2.792 2.008,0.792 3.504,1.976 4.48,3.544 0.976,1.56 1.368,3.336 1.184,5.328 -0.144,1.6 -0.624,3.056 -1.424,4.376 -0.808,1.312 -1.744,2.296 -2.808,2.944 -1.064,0.656 -2.36,1.104 -3.896,1.344 -1.536,0.248 -3.392,0.264 -5.568,0.064l-13.04 -1.208zm6.368 -19.408l7.392 0.688c2,0.184 3.456,0.184 4.352,0.008 1.176,-0.24 2.096,-0.728 2.752,-1.464 0.656,-0.736 1.04,-1.704 1.152,-2.904 0.104,-1.136 -0.072,-2.16 -0.536,-3.072 -0.464,-0.912 -1.184,-1.576 -2.168,-1.992 -0.976,-0.408 -2.696,-0.728 -5.152,-0.96l-6.84 -0.632 -0.952 10.328zm-1.464 15.792l8.512 0.792c1.456,0.128 2.488,0.176 3.088,0.12 1.064,-0.088 1.96,-0.32 2.704,-0.696 0.736,-0.368 1.368,-0.944 1.896,-1.736 0.528,-0.792 0.848,-1.728 0.944,-2.816 0.12,-1.28 -0.104,-2.416 -0.672,-3.416 -0.56,-1 -1.408,-1.744 -2.528,-2.232 -1.128,-0.488 -2.776,-0.832 -4.952,-1.04l-7.904 -0.728 -1.088 11.752z"/>
   </clipPath>
   <clipPath id="id12" style="clip-rule:nonzero">
    <path d="M496.585 746.685l-1.312 -34.32 11.824 -0.456c2.664,-0.104 4.712,-0.016 6.128,0.256 1.984,0.376 3.696,1.128 5.128,2.264 1.872,1.464 3.296,3.36 4.288,5.712 0.992,2.344 1.544,5.048 1.656,8.104 0.104,2.608 -0.112,4.928 -0.64,6.968 -0.536,2.04 -1.248,3.736 -2.152,5.088 -0.904,1.36 -1.904,2.432 -3.008,3.232 -1.104,0.8 -2.448,1.432 -4.032,1.88 -1.584,0.456 -3.416,0.72 -5.488,0.8l-12.392 0.472zm4.392 -4.224l7.328 -0.28c2.264,-0.088 4.032,-0.368 5.304,-0.84 1.272,-0.472 2.272,-1.104 3.008,-1.896 1.032,-1.12 1.816,-2.6 2.352,-4.44 0.528,-1.84 0.744,-4.056 0.648,-6.648 -0.144,-3.592 -0.832,-6.328 -2.088,-8.208 -1.256,-1.88 -2.736,-3.12 -4.448,-3.712 -1.232,-0.424 -3.2,-0.576 -5.904,-0.472l-7.208 0.272 1.008 26.224z"/>
   </clipPath>
   <clipPath id="id13" style="clip-rule:nonzero">
    <path d="M531.271 744.465l-4.185 -34.08 24.641 -3.032 0.496 4.024 -20.136 2.472 1.279 10.44 18.857 -2.312 0.495 4 -18.855 2.312 1.423 11.6 20.921 -2.568 0.495 4.024 -25.431 3.12z"/>
   </clipPath>
   <clipPath id="id14" style="clip-rule:nonzero">
    <path d="M559.553 729.674l4.16 -1.088c0.488,1.664 1.183,2.976 2.104,3.936 0.912,0.96 2.191,1.649 3.848,2.056 1.648,0.409 3.439,0.448 5.359,0.121 1.713,-0.288 3.177,-0.793 4.401,-1.521 1.224,-0.735 2.079,-1.591 2.568,-2.584 0.488,-0.992 0.64,-2.016 0.463,-3.064 -0.175,-1.064 -0.639,-1.936 -1.392,-2.623 -0.751,-0.689 -1.879,-1.185 -3.383,-1.481 -0.968,-0.199 -3.072,-0.416 -6.305,-0.631 -3.239,-0.225 -5.535,-0.561 -6.887,-1.008 -1.761,-0.576 -3.145,-1.425 -4.153,-2.544 -0.999,-1.121 -1.64,-2.457 -1.895,-4.009 -0.296,-1.712 -0.081,-3.383 0.639,-5.04 0.72,-1.648 1.945,-3.016 3.681,-4.096 1.728,-1.088 3.736,-1.824 6.008,-2.208 2.511,-0.424 4.792,-0.391 6.848,0.089 2.047,0.487 3.727,1.423 5.023,2.823 1.296,1.392 2.152,3.081 2.561,5.049l-4.241 1.047c-0.591,-2.096 -1.647,-3.584 -3.159,-4.448 -1.52,-0.864 -3.576,-1.08 -6.176,-0.64 -2.713,0.456 -4.6,1.288 -5.672,2.488 -1.073,1.2 -1.488,2.504 -1.248,3.905 0.208,1.215 0.816,2.143 1.824,2.775 0.991,0.64 3.383,1.065 7.16,1.272 3.776,0.208 6.399,0.504 7.856,0.897 2.12,0.576 3.768,1.479 4.944,2.711 1.176,1.232 1.92,2.761 2.224,4.576 0.303,1.8 0.08,3.584 -0.688,5.352 -0.76,1.769 -2.033,3.257 -3.816,4.464 -1.776,1.216 -3.881,2.024 -6.296,2.433 -3.064,0.519 -5.704,0.503 -7.92,-0.033 -2.224,-0.543 -4.072,-1.616 -5.553,-3.208 -1.488,-1.592 -2.448,-3.519 -2.887,-5.768z"/>
   </clipPath>
   <clipPath id="id15" style="clip-rule:nonzero">
    <path d="M595.034 733.769l-8.376 -33.328 4.416 -1.112 8.368 33.328 -4.408 1.112z"/>
   </clipPath>
   <clipPath id="id16" style="clip-rule:nonzero">
    <path d="M617.586 712.526l-1.424 -3.767 13.616 -5.145 4.489 11.936c-1.465,2.448 -3.152,4.512 -5.057,6.192 -1.903,1.672 -4.032,2.953 -6.367,3.832 -3.16,1.192 -6.288,1.592 -9.377,1.208 -3.087,-0.384 -5.775,-1.607 -8.056,-3.671 -2.272,-2.064 -4.007,-4.673 -5.192,-7.833 -1.175,-3.128 -1.624,-6.296 -1.336,-9.504 0.288,-3.207 1.417,-5.928 3.377,-8.168 1.968,-2.239 4.552,-3.96 7.751,-5.167 2.329,-0.873 4.568,-1.281 6.728,-1.241 2.169,0.048 4.032,0.544 5.608,1.488 1.569,0.944 3.041,2.393 4.416,4.352l-3.448 2.496c-1.095,-1.456 -2.183,-2.52 -3.247,-3.184 -1.073,-0.664 -2.377,-1.031 -3.921,-1.096 -1.536,-0.064 -3.12,0.209 -4.744,0.824 -1.943,0.729 -3.519,1.656 -4.712,2.784 -1.2,1.12 -2.048,2.336 -2.559,3.624 -0.505,1.296 -0.785,2.608 -0.833,3.944 -0.071,2.296 0.328,4.608 1.209,6.937 1.072,2.863 2.471,5.079 4.184,6.639 1.711,1.56 3.688,2.448 5.927,2.68 2.241,0.224 4.416,-0.064 6.536,-0.856 1.841,-0.696 3.513,-1.728 5.001,-3.096 1.488,-1.368 2.527,-2.624 3.136,-3.768l-2.249 -5.992 -9.456 3.552z"/>
   </clipPath>
   <clipPath id="id17" style="clip-rule:nonzero">
    <path d="M642.182 717.59l-15.648 -30.584 4.152 -2.12 28.344 15.792 -12.288 -24.016 3.881 -1.984 15.648 30.584 -4.145 2.12 -28.36 -15.808 12.297 24.032 -3.881 1.984z"/>
   </clipPath>
   <clipPath id="id18" style="clip-rule:nonzero">
    <path d="M677.01 686.125l3.392 -2.648c1.104,1.328 2.264,2.256 3.488,2.776 1.224,0.52 2.672,0.632 4.352,0.352 1.68,-0.28 3.336,-0.952 4.976,-2.016 1.448,-0.944 2.592,-1.992 3.424,-3.144 0.832,-1.152 1.28,-2.288 1.336,-3.392 0.048,-1.104 -0.208,-2.104 -0.792,-2.992 -0.584,-0.904 -1.36,-1.528 -2.32,-1.856 -0.96,-0.336 -2.192,-0.344 -3.696,-0.016 -0.968,0.2 -2.984,0.84 -6.04,1.92 -3.056,1.088 -5.296,1.688 -6.72,1.816 -1.848,0.176 -3.448,-0.056 -4.816,-0.688 -1.368,-0.624 -2.48,-1.6 -3.344,-2.928 -0.944,-1.448 -1.408,-3.08 -1.408,-4.88 0.008,-1.792 0.584,-3.536 1.744,-5.224 1.16,-1.68 2.712,-3.152 4.648,-4.408 2.136,-1.384 4.24,-2.264 6.32,-2.64 2.072,-0.368 3.984,-0.168 5.728,0.592 1.744,0.768 3.2,1.976 4.36,3.624l-3.472 2.648c-1.376,-1.696 -2.936,-2.64 -4.672,-2.832 -1.736,-0.192 -3.712,0.424 -5.928,1.864 -2.304,1.496 -3.704,3.008 -4.216,4.536 -0.504,1.528 -0.368,2.888 0.408,4.08 0.672,1.04 1.592,1.648 2.776,1.832 1.168,0.192 3.528,-0.368 7.08,-1.68 3.552,-1.312 6.072,-2.08 7.56,-2.304 2.184,-0.312 4.056,-0.144 5.624,0.528 1.568,0.664 2.848,1.768 3.856,3.312 0.992,1.536 1.496,3.264 1.496,5.192 0,1.92 -0.576,3.792 -1.728,5.616 -1.152,1.816 -2.76,3.392 -4.816,4.728 -2.608,1.696 -5.032,2.736 -7.288,3.12 -2.256,0.384 -4.376,0.136 -6.368,-0.744 -1.992,-0.872 -3.64,-2.256 -4.944,-4.144z"/>
   </clipPath>
   <clipPath id="id19" style="clip-rule:nonzero">
    <path d="M718.078 671.708l-17.856 -24.48 -9.144 6.664 -2.392 -3.272 22.008 -16.048 2.384 3.272 -9.184 6.704 17.856 24.488 -3.672 2.672z"/>
   </clipPath>
   <clipPath id="id20" style="clip-rule:nonzero">
    <path d="M728.951 618.673l3.425 -2.984 13.04 14.952c2.272,2.6 3.776,4.92 4.528,6.96 0.743,2.048 0.768,4.216 0.071,6.512 -0.703,2.296 -2.295,4.536 -4.791,6.712 -2.424,2.112 -4.776,3.424 -7.04,3.936 -2.272,0.512 -4.424,0.264 -6.464,-0.744 -2.04,-1.008 -4.257,-2.888 -6.648,-5.624l-13.04 -14.952 3.423 -2.984 13.025 14.928c1.959,2.248 3.616,3.72 4.96,4.424 1.344,0.696 2.784,0.896 4.304,0.584 1.519,-0.312 3.016,-1.112 4.488,-2.392 2.512,-2.2 3.808,-4.336 3.888,-6.408 0.072,-2.08 -1.304,-4.736 -4.136,-7.984l-13.033 -14.936z"/>
   </clipPath>
   <clipPath id="id21" style="clip-rule:nonzero">
    <path d="M760.398 636.22l-25.432 -23.128 7.976 -8.76c1.8,-1.976 3.288,-3.376 4.48,-4.2 1.664,-1.152 3.4,-1.84 5.216,-2.072 2.352,-0.312 4.712,0.008 7.08,0.944 2.368,0.944 4.688,2.44 6.952,4.504 1.928,1.76 3.44,3.544 4.52,5.352 1.08,1.808 1.792,3.504 2.128,5.104 0.328,1.592 0.4,3.064 0.2,4.408 -0.208,1.352 -0.704,2.752 -1.488,4.2 -0.792,1.448 -1.888,2.936 -3.288,4.48l-8.344 9.168zm0.056 -6.088l4.944 -5.432c1.52,-1.68 2.568,-3.136 3.12,-4.368 0.56,-1.24 0.808,-2.4 0.76,-3.488 -0.072,-1.52 -0.584,-3.12 -1.52,-4.784 -0.944,-1.672 -2.376,-3.384 -4.296,-5.128 -2.656,-2.424 -5.096,-3.848 -7.32,-4.272 -2.224,-0.424 -4.144,-0.232 -5.768,0.568 -1.168,0.592 -2.664,1.88 -4.48,3.88l-4.864 5.344 19.424 17.68z"/>
   </clipPath>
   <clipPath id="id22" style="clip-rule:nonzero">
    <path d="M783.734 609.57l-27.176 -21 2.776 -3.6 27.184 21.008 -2.784 3.592z"/>
   </clipPath>
   <clipPath id="id23" style="clip-rule:nonzero">
    <path d="M776.776 591.772c-4.776,-3.104 -7.688,-6.816 -8.728,-11.144 -1.032,-4.32 -0.232,-8.512 2.4,-12.568 1.728,-2.656 3.92,-4.64 6.576,-5.952 2.656,-1.312 5.48,-1.784 8.48,-1.432 3,0.36 5.936,1.472 8.816,3.344 2.92,1.896 5.152,4.176 6.688,6.856 1.544,2.672 2.208,5.472 1.984,8.4 -0.216,2.936 -1.136,5.648 -2.76,8.152 -1.76,2.712 -3.992,4.704 -6.688,5.992 -2.696,1.28 -5.528,1.736 -8.512,1.368 -2.976,-0.376 -5.728,-1.376 -8.256,-3.016zm2.608 -3.896c3.472,2.256 6.808,3.096 10.016,2.528 3.208,-0.568 5.728,-2.264 7.56,-5.072 1.864,-2.872 2.384,-5.888 1.568,-9.048 -0.808,-3.16 -3.072,-5.944 -6.776,-8.352 -2.344,-1.52 -4.648,-2.456 -6.912,-2.8 -2.256,-0.344 -4.368,-0.064 -6.32,0.84 -1.952,0.896 -3.544,2.296 -4.776,4.2 -1.752,2.696 -2.336,5.616 -1.744,8.768 0.592,3.144 3.048,6.128 7.384,8.936z"/>
   </clipPath>
  <linearGradient id="id24" gradientUnits="userSpaceOnUse" x1="437.5" y1="647.066" x2="550.5" y2="647.066">
   <stop offset="0" style="stop-opacity:1; stop-color:#121212"/>
   <stop offset="0.501961" style="stop-opacity:1; stop-color:#BCC1C4"/>
   <stop offset="1" style="stop-opacity:1; stop-color:#171717"/>
  </linearGradient>
  <linearGradient id="id25" gradientUnits="userSpaceOnUse" x1="437.539" y1="675.138" x2="550.5" y2="675.138">
   <stop offset="0" style="stop-opacity:1; stop-color:#FF0066"/>
   <stop offset="0.501961" style="stop-opacity:1; stop-color:#FF99CC"/>
   <stop offset="1" style="stop-opacity:1; stop-color:#FF0066"/>
  </linearGradient>
  <linearGradient id="id26" gradientUnits="userSpaceOnUse" x1="438.639" y1="232.924" x2="550.614" y2="232.924">
   <stop offset="0" style="stop-opacity:1; stop-color:#FF9933"/>
   <stop offset="0.458824" style="stop-opacity:1; stop-color:#FFD5B2"/>
   <stop offset="1" style="stop-opacity:1; stop-color:#FF9D3E"/>
  </linearGradient>
  <linearGradient id="id27" gradientUnits="userSpaceOnUse" x1="709.396" y1="343.845" x2="717.622" y2="557.134">
   <stop offset="0" style="stop-opacity:1; stop-color:#43F743"/>
   <stop offset="0.478431" style="stop-opacity:1; stop-color:#068F06"/>
   <stop offset="1" style="stop-opacity:1; stop-color:#2BAD2A"/>
  </linearGradient>
  <linearGradient id="id28" gradientUnits="userSpaceOnUse" x1="228.183" y1="431.103" x2="351.84" y2="307.447">
   <stop offset="0" style="stop-opacity:1; stop-color:#1D7519"/>
   <stop offset="1" style="stop-opacity:1; stop-color:#3DF53D"/>
  </linearGradient>
  <linearGradient id="id29" gradientUnits="userSpaceOnUse" x1="327.306" y1="116.067" x2="675.066" y2="116.067">
   <stop offset="0" style="stop-opacity:1; stop-color:lime"/>
   <stop offset="1" style="stop-opacity:1; stop-color:#65B965"/>
  </linearGradient>
 </defs>
 <g id="Layer_x0020_1">
  <metadata id="CorelCorpID_0Corel-Layer"/>
  <path class="fil0 str0" d="M466.633 256.895l0 0 -27.994 -0.597 57.734 -80.788 54.241 83.173 -27.993 -0.596 0 0 -55.988 -1.192zm0 0m-13.997 -0.299m14.871 -40.692m55.987 1.193m13.124 41.288m-13.997 -0.298m-27.994 -0.596"/>
  <polyline class="fil1 str0" points="438.639,256.298 438,632.526 550.246,634.478 550.614,258.683 "/>
  <polyline class="fil1 str0" points="478.48,200.548 483.5,214.5 497.5,205.5 508.5,213.5 512.744,200.613 "/>
  <path class="fil2" d="M438 632.526l0.639 -376.228 39.841 -55.75 17.893 -25.038 16.371 25.103 37.87 58.07 -0.368 375.795 0.254 21.022 0 25.516c0,2.161 0,2.484 -2,4.484 -2.168,1.321 -2.395,1.96 -4.592,1.941 -33.167,-0.295 -66.336,-0.593 -99.503,-0.888 -1.968,-0.017 -2.338,-0.963 -3.905,-2.053l-2.161 -2.974 -0.839 -26.026 0.5 -22.974zm434.516 -248.016c0,-206.549 -167.442,-373.99 -373.991,-373.99 -206.548,0 -373.99,167.441 -373.99,373.99 0,206.549 167.442,373.99 373.99,373.99 206.549,0 373.991,-167.441 373.991,-373.99z"/>
  <polygon class="fil3" points="483.5,214.5 497.5,205.5 508.5,213.5 512.744,200.613 496.373,175.51 478.48,200.548 "/>
  <path class="fil4" d="M497.5 205.5l-14 9 -5.02 -13.952 -39.841 55.75c7.231,3.499 20.954,7.095 30.286,7.294 18.871,1.302 34.51,2.599 53.282,0.89 9.414,-1.064 18.538,-1.966 28.407,-5.799l-37.87 -58.07 -4.244 12.887 -11 -8z"/>
  <g id="_3020559377648">
   <g style="clip-path:url(#id0)">
    <image x="437.227" y="255.798" width="113.387" height="381.657" xlink:href="ivyfavicon_Images\ivyfavicon_ImgID1.png"/>
   </g>
  </g>
  <path class="fil5" d="M550.248 632.226l-35.428 3.619c-15.901,0.856 -30.823,0.033 -44.923,-0.784 -10.499,-1.278 -21.395,-3.458 -31.893,-4.736l-0.504 25.175c7.078,2.311 11.465,4.098 19.742,5.529 20.23,2.156 42.449,4.326 63.133,1.251 9.942,-1.359 24.523,-3.963 30.125,-6.101l-0.252 -23.953z"/>
  <path class="fil6" d="M550.5 655c-9.111,2.633 -30.001,5.978 -36.882,6.65 -3.374,0.227 -8.03,0.694 -10.692,0.808 -14.64,0.626 -19.101,-0.148 -37.559,-1.696 -11.591,-1.64 -17.405,-3.849 -27.828,-7.07 0.039,8.207 0.039,18.221 0.078,26.428 0.728,1.793 0.255,3.887 2.183,5.38 1.567,1.09 4.498,1.57 6.404,2.053 47.767,12.094 49.35,11.967 98.117,0.063 2.134,-0.521 2.011,-0.795 4.179,-2.116 2,-2 2,-2.323 2,-4.484l0 -26.016z"/>
  <path class="fil7" d="M327.306 147.171l0 -3.072 7.68 0 0 -56.448 -7.68 0 0 -2.88 31.489 0 0 2.88 -7.68 0 0 56.448 7.68 0 0 3.072 -31.489 0zm65.297 1.44l-25.072 -60.96 -5.296 0 0 -2.88 29.392 0 0 2.88 -7.216 0 15.936 38.624 11.424 -32.384c0.384,-0.976 0.656,-1.792 0.832,-2.448 0.176,-0.656 0.256,-1.184 0.256,-1.584 0,-0.848 -0.304,-1.424 -0.912,-1.744 -0.608,-0.304 -1.92,-0.464 -3.92,-0.464l-3.84 0 0 -2.88 19.872 0 0 2.88 -2.672 0c-1.6,0 -2.848,0.432 -3.744,1.296 -0.912,0.848 -1.872,2.736 -2.864,5.632l-19.312 54.032 -2.864 0zm48.944 -1.44l0 -3.072 7.68 0 0 -26.576 -18.24 -29.872 -6.144 0 0 -2.88 31.424 0 0 2.88 -7.697 0 15.281 25.36 10.735 -20.16c0.497,-0.96 0.849,-1.696 1.056,-2.176 0.192,-0.48 0.305,-0.88 0.305,-1.2 0,-0.624 -0.272,-1.088 -0.8,-1.376 -0.528,-0.304 -1.329,-0.448 -2.4,-0.448l-5.376 0 0 -2.88 20.16 0 0 2.88 -2.577 0c-1.663,0 -3.007,0.416 -4.063,1.264 -1.04,0.848 -2.321,2.672 -3.824,5.488l-11.712 21.888 0 27.808 7.68 0 0 3.072 -31.488 0zm62.415 0l0 -3.072 7.68 0 0 -56.448 -3.375 0c-4.08,0 -7.313,1.264 -9.665,3.792 -2.368,2.528 -4.447,7.024 -6.256,13.488l-2.496 0 0.753 -20.16 58.159 0 0.8 20.16 -2.496 0c-1.712,-6.272 -3.776,-10.72 -6.176,-13.344 -2.416,-2.624 -5.599,-3.936 -9.568,-3.936l-3.552 0 0 56.448 7.68 0 0 3.072 -31.488 0zm57.984 -20.736l16.928 0 -8.24 -21.872 -8.688 21.872zm-16.592 20.736l0 -3.072 3.84 0c1.04,0 1.904,-0.352 2.576,-1.04 0.688,-0.688 1.392,-1.936 2.112,-3.744l21.44 -55.792 3.744 0 23.441 60.576 5.535 0 0 3.072 -30.24 0 0 -3.072 7.6 0 -5.488 -14.592 -18.992 0 -4.128 10.656c-0.096,0.176 -0.16,0.48 -0.208,0.864 -0.048,0.384 -0.08,0.848 -0.08,1.376 0,0.544 0.256,0.96 0.736,1.248 0.48,0.304 1.168,0.448 2.032,0.448l5.584 0 0 3.072 -19.504 0zm129.712 -21.024l-5.76 0 0 0.8c0,6.768 -2.224,12.064 -6.656,15.904 -4.448,3.84 -10.576,5.76 -18.4,5.76 -3.152,0 -6.08,-0.384 -8.768,-1.168 -2.688,-0.784 -5.168,-1.968 -7.456,-3.568 -4.656,-3.216 -8.224,-7.2 -10.688,-11.968 -2.48,-4.768 -3.712,-10.048 -3.712,-15.872 0,-4.496 0.864,-8.752 2.608,-12.768 1.728,-4 4.32,-7.664 7.76,-10.976 2.944,-2.88 6.144,-5.056 9.632,-6.544 3.488,-1.488 7.12,-2.224 10.912,-2.224 3.12,0 5.936,0.4 8.448,1.216 2.496,0.8 4.688,2.032 6.56,3.68l3.504 -3.744 2.816 0 0.464 18.048 -3.456 0c-1.632,-5.344 -3.904,-9.408 -6.848,-12.176 -2.944,-2.768 -6.448,-4.144 -10.512,-4.144 -2.992,0 -5.424,0.512 -7.264,1.52 -1.84,1.024 -3.232,2.624 -4.176,4.816 -0.72,1.616 -1.216,3.952 -1.504,7.008 -0.272,3.04 -0.416,9.12 -0.416,18.224 0,12.816 0.784,20.64 2.352,23.488 1.552,2.848 4.56,4.272 9.008,4.272 3.024,0 5.36,-0.672 7.008,-2.016 1.648,-1.344 2.464,-3.264 2.464,-5.76l0 -11.808 -8.16 0 0 -2.976 30.24 0 0 2.976z"/>
  <path class="fil8 str0" d="M782.114 341.52c-23.739,-0.134 -51.018,0.498 -75.707,13.842 -24.688,13.344 -46.787,39.399 -57.455,67.745 -10.669,28.345 -9.907,58.98 -18.043,82.187 -8.137,23.207 -25.171,38.986 -31.961,48.069 -6.791,9.084 -3.34,11.47 4.775,4.016 8.113,-7.454 20.888,-24.749 37.899,-35.697 17.01,-10.947 38.255,-15.546 61.646,-24.43 23.391,-8.883 48.927,-22.049 64.347,-41.547 15.42,-19.497 20.725,-45.325 26.748,-63.41 6.024,-18.085 12.765,-28.426 21.533,-35.275 8.767,-6.849 19.56,-10.205 14.857,-12.335 -4.704,-2.128 -24.9,-3.03 -48.639,-3.165z"/>
  <path class="fil9 str0" d="M205.533 289.209c5.185,19.328 8.721,33.234 15.32,43.369 6.6,10.135 16.264,16.499 25.103,24.867 8.838,8.367 16.852,18.738 24.041,32.055 7.189,13.318 13.553,29.581 18.385,45.02 4.832,15.438 8.132,30.051 14.378,42.19 6.246,12.139 15.438,21.803 22.391,27.813 6.954,6.011 11.668,8.367 17.325,18.267 5.656,9.9 12.256,27.342 16.97,36.77 4.714,9.428 7.543,10.842 4.714,1.885 -2.828,-8.956 -11.313,-28.284 -17.56,-44.901 -6.246,-16.617 -10.252,-30.523 -9.899,-46.669 0.354,-16.146 5.068,-34.531 9.428,-53.505 4.361,-18.974 8.367,-38.537 4.361,-60.457 -4.007,-21.921 -16.028,-46.198 -27.106,-63.64 -11.078,-17.442 -21.213,-28.049 -27.931,-37.123 -6.717,-9.075 -10.017,-16.617 -20.624,-22.746 -10.607,-6.128 -28.52,-10.842 -41.13,-14.495 -12.61,-3.654 -19.917,-6.246 -25.338,-9.546 -5.421,-3.3 -8.957,-7.307 -11.667,-10.489 -2.711,-3.182 -4.597,-5.539 -6.129,-1.65 -1.532,3.89 -2.71,14.024 0.119,31.467 2.828,17.442 9.664,42.19 14.849,61.518z"/>
  <path class="fil1 str1" d="M193.719 194.732c1.778,8.432 3.555,16.865 7.92,26.561 4.365,9.696 11.319,20.656 19.981,33.444 8.661,12.786 19.032,27.4 25.397,40.01 6.363,12.61 8.72,23.216 14.319,36.711 5.597,13.494 14.436,29.875 22.038,47.847 7.601,17.973 13.965,37.536 17.972,50.971 4.007,13.435 5.657,20.742 7.601,27.754 1.945,7.012 4.184,13.73 7.072,19.917 2.887,6.187 6.423,11.844 9.668,17.549 3.244,5.707 6.199,11.461 6.139,11.402 -0.058,-0.059 -3.131,-5.931 -4.667,-8.868 -1.536,-2.936 -1.536,-2.936 -1.359,-2.995 0.177,-0.059 0.531,-0.176 0.884,-0.294"/>
  <path class="fil1 str1" d="M229.836 266.802c0.817,-7.579 1.634,-15.158 4.151,-22.768 2.517,-7.61 6.734,-15.252 8.76,-19.097 2.024,-3.845 1.857,-3.894 1.69,-3.943"/>
  <path class="fil1 str1" d="M238.756 280.375c-7.341,-2.675 -14.684,-5.35 -20.954,-6.611 -6.27,-1.261 -11.47,-1.109 -16.669,-0.956"/>
  <path class="fil1 str1" d="M262.854 335.013c3.128,-12.756 6.256,-25.512 9.294,-35.72 3.037,-10.209 5.983,-17.869 9.853,-24.801 3.869,-6.933 8.66,-13.138 11.057,-16.24 2.395,-3.102 2.395,-3.102 2.395,-3.102 0,0 0,0 0,0"/>
  <path class="fil1 str1" d="M269.804 349.957c-5.317,-2.181 -10.634,-4.362 -14.824,-5.688 -4.19,-1.326 -7.254,-1.798 -10.365,-1.036 -3.112,0.761 -6.27,2.756 -9.428,4.75"/>
  <path class="fil1 str1" d="M290.56 397.627c2.849,-8.408 5.699,-16.814 9.01,-24.436 3.31,-7.621 7.082,-14.456 11.088,-20.349 4.007,-5.893 8.25,-10.842 13.147,-15.676 4.897,-4.833 10.447,-9.551 15.998,-14.268"/>
  <path class="fil1 str1" d="M296.559 414.972c-3.982,-3.464 -7.964,-6.929 -11.539,-9.47 -3.576,-2.541 -6.746,-4.159 -8.397,-5.109 -1.65,-0.95 -1.781,-1.231 -1.913,-1.513"/>
  <path class="fil1 str1" d="M302.694 434.868c6.23,-9.861 12.459,-19.721 18.108,-27.068 5.648,-7.346 10.716,-12.178 15.194,-14.417 4.479,-2.239 8.368,-1.885 10.735,-1.581 2.366,0.304 3.21,0.559 4.055,0.814"/>
  <path class="fil1 str1" d="M312.073 468.135c-2.082,-1.15 -4.165,-2.301 -5.854,-2.818 -1.689,-0.516 -2.985,-0.398 -3.899,0.75 -0.914,1.149 -1.446,3.329 -1.978,5.508"/>
  <path class="fil1 str1" d="M320.672 486.82c0.708,-3.608 1.416,-7.215 2.832,-9.962 1.414,-2.747 3.536,-4.632 5.85,-5.222 2.314,-0.59 4.821,0.116 7.328,0.822"/>
  <path class="fil1 str2" d="M830.752 344.686c-7.505,1.078 -15.01,2.157 -22.513,4.196 -7.503,2.039 -15.003,5.039 -23.336,9.622 -8.333,4.584 -17.5,10.75 -25.417,17.584 -7.916,6.833 -14.583,14.333 -22.25,24.083 -7.667,9.75 -16.333,21.75 -23.667,30.583 -7.333,8.834 -13.333,14.5 -19,21.25 -5.666,6.75 -11,14.584 -17.666,21.584 -6.667,7 -14.667,13.167 -22.834,21.083 -8.166,7.917 -16.499,17.584 -20.666,22.417 -4.167,4.833 -4.167,4.833 -4.167,4.833"/>
  <path class="fil1 str2" d="M779.911 361.382c5.942,-0.487 11.883,-0.974 16.491,-0.297 4.608,0.677 7.882,2.517 11.156,4.358"/>
  <path class="fil1 str2" d="M771.749 366.652c1.662,-4.744 3.325,-9.487 3.738,-13.676 0.414,-4.189 -0.422,-7.823 -1.257,-11.457"/>
  <path class="fil1 str2" d="M750.251 384.91c6.161,-0.829 12.323,-1.659 17.404,-1.324 5.081,0.335 9.081,1.835 13.352,3.481 4.271,1.646 8.813,3.437 13.356,5.228"/>
  <path class="fil1 str2" d="M739.64 397.148c0.865,-8.242 1.731,-16.485 1.413,-23.439 -0.317,-6.955 -1.817,-12.621 -3.53,-17.065 -1.712,-4.444 -3.639,-7.665 -5.564,-10.885"/>
  <path class="fil1 str2" d="M722.843 419.003c7.298,-1.361 14.596,-2.721 21.328,-2.568 6.732,0.153 12.899,1.819 19.082,4.409 6.184,2.591 12.384,6.105 15.485,7.862 3.1,1.757 3.1,1.757 3.095,1.77 -0.006,0.013 -0.016,0.038 -0.027,0.065"/>
  <path class="fil1 str2" d="M713.569 430.754c0.056,-10.944 0.112,-21.889 -1.944,-29.861 -2.055,-7.972 -6.222,-12.972 -10.832,-17.68 -4.609,-4.707 -9.661,-9.123 -14.713,-13.538"/>
  <path class="fil1 str2" d="M694.569 452.004c6.349,-0.116 12.697,-0.233 19.058,0.67 6.361,0.903 12.735,2.825 19.352,5.886 6.618,3.061 13.478,7.261 20.339,11.461"/>
  <path class="fil1 str2" d="M685.918 462.949c-2.06,-9.01 -4.121,-18.019 -6.652,-25.023 -2.53,-7.005 -5.53,-12.005 -9.426,-16.827 -3.895,-4.822 -8.687,-9.466 -13.478,-14.109"/>
  <path class="fil1 str2" d="M668.01 482.046c8.242,0.292 16.484,0.583 22.36,3.117 5.877,2.535 9.388,7.312 11.143,9.701 1.755,2.388 1.755,2.388 1.755,2.388"/>
  <path class="fil1 str2" d="M656.595 492.27c-0.453,-5.117 -0.906,-10.233 -2.132,-14.624 -1.227,-4.391 -3.227,-8.058 -5.655,-11.604 -2.429,-3.544 -5.286,-6.968 -8.143,-10.391"/>
  <path class="fil1 str3" d="M163.803 551.514c2.863,5.393 5.727,10.786 9.662,17.557 3.936,6.77 8.943,14.917 15.361,24.657 6.417,9.74 14.245,21.071 26.174,35.119 11.929,14.048 27.959,30.811 47.557,46.692 19.598,15.882 42.765,30.882 66.432,43.049 23.666,12.166 47.833,21.5 72.667,28.25 24.833,6.75 50.333,10.916 75.193,11.84 24.86,0.925 49.081,-1.394 69.749,-3.978 20.667,-2.583 37.783,-5.431 55.132,-10.231 17.349,-4.8 34.933,-11.549 50.116,-18.574 15.183,-7.025 27.965,-14.325 44.34,-24.784 16.375,-10.458 36.342,-24.074 55.159,-40.466 18.817,-16.392 36.482,-35.558 50.221,-54.775 13.738,-19.216 23.548,-38.484 33.359,-57.752"/>
  <g style="clip-path:url(#id1)">
   <image x="192.359" y="555.871" width="35.592" height="34.008" xlink:href="ivyfavicon_Images\ivyfavicon_ImgID2.png"/>
  </g>
  <g style="clip-path:url(#id2)">
   <image x="206.546" y="577.745" width="40.48" height="45.128" xlink:href="ivyfavicon_Images\ivyfavicon_ImgID3.png"/>
  </g>
  <g style="clip-path:url(#id3)">
   <image x="228.411" y="602.733" width="42.056" height="42.208" xlink:href="ivyfavicon_Images\ivyfavicon_ImgID4.png"/>
  </g>
  <g style="clip-path:url(#id4)">
   <image x="247.561" y="629.446" width="36.088" height="38.416" xlink:href="ivyfavicon_Images\ivyfavicon_ImgID5.png"/>
  </g>
  <g style="clip-path:url(#id5)">
   <image x="279.03" y="638.829" width="33.272" height="37.056" xlink:href="ivyfavicon_Images\ivyfavicon_ImgID6.png"/>
  </g>
  <g style="clip-path:url(#id6)">
   <image x="296.453" y="657.047" width="23.032" height="31" xlink:href="ivyfavicon_Images\ivyfavicon_ImgID7.png"/>
  </g>
  <g style="clip-path:url(#id7)">
   <image x="315.409" y="660.998" width="32.904" height="38.736" xlink:href="ivyfavicon_Images\ivyfavicon_ImgID8.png"/>
  </g>
  <g style="clip-path:url(#id8)">
   <image x="334.936" y="677.325" width="37.448" height="42.136" xlink:href="ivyfavicon_Images\ivyfavicon_ImgID9.png"/>
  </g>
  <g style="clip-path:url(#id9)">
   <image x="381.983" y="692.896" width="43.704" height="43.152" xlink:href="ivyfavicon_Images\ivyfavicon_ImgID10.png"/>
  </g>
  <g style="clip-path:url(#id10)">
   <image x="419.853" y="705.524" width="30.528" height="38.344" xlink:href="ivyfavicon_Images\ivyfavicon_ImgID11.png"/>
  </g>
  <g style="clip-path:url(#id11)">
   <image x="451.132" y="710.514" width="26.92" height="35.6" xlink:href="ivyfavicon_Images\ivyfavicon_ImgID12.png"/>
  </g>
  <g style="clip-path:url(#id12)">
   <image x="495.273" y="711.805" width="29.128" height="34.88" xlink:href="ivyfavicon_Images\ivyfavicon_ImgID13.png"/>
  </g>
  <g style="clip-path:url(#id13)">
   <image x="527.086" y="707.353" width="29.616" height="37.112" xlink:href="ivyfavicon_Images\ivyfavicon_ImgID14.png"/>
  </g>
  <g style="clip-path:url(#id14)">
   <image x="558.145" y="703.466" width="28.872" height="35.736" xlink:href="ivyfavicon_Images\ivyfavicon_ImgID15.png"/>
  </g>
  <g style="clip-path:url(#id15)">
   <image x="586.658" y="699.329" width="12.784" height="34.44" xlink:href="ivyfavicon_Images\ivyfavicon_ImgID16.png"/>
  </g>
  <g style="clip-path:url(#id16)">
   <image x="598.594" y="691.158" width="35.672" height="36.008" xlink:href="ivyfavicon_Images\ivyfavicon_ImgID17.png"/>
  </g>
  <g style="clip-path:url(#id17)">
   <image x="626.534" y="674.678" width="39.736" height="42.912" xlink:href="ivyfavicon_Images\ivyfavicon_ImgID18.png"/>
  </g>
  <g style="clip-path:url(#id18)">
   <image x="668.842" y="655.789" width="33.312" height="35.608" xlink:href="ivyfavicon_Images\ivyfavicon_ImgID19.png"/>
  </g>
  <g style="clip-path:url(#id19)">
   <image x="688.686" y="634.572" width="33.064" height="37.136" xlink:href="ivyfavicon_Images\ivyfavicon_ImgID20.png"/>
  </g>
  <g style="clip-path:url(#id20)">
   <image x="712.032" y="615.689" width="38.68" height="39.584" xlink:href="ivyfavicon_Images\ivyfavicon_ImgID21.png"/>
  </g>
  <g style="clip-path:url(#id21)">
   <image x="734.966" y="597.748" width="38.752" height="38.472" xlink:href="ivyfavicon_Images\ivyfavicon_ImgID22.png"/>
  </g>
  <g style="clip-path:url(#id22)">
   <image x="756.558" y="584.97" width="29.96" height="24.6" xlink:href="ivyfavicon_Images\ivyfavicon_ImgID23.png"/>
  </g>
  <g style="clip-path:url(#id23)">
   <image x="767.016" y="560.324" width="36.2" height="34.832" xlink:href="ivyfavicon_Images\ivyfavicon_ImgID24.png"/>
  </g>
 </g>
</svg>
